HIERARCHY
ROOT hip
{
	OFFSET 0.000000 0.000000 0.000000 
	CHANNELS 6 Xposition Yposition Zposition Xrotation Zrotation Yrotation
	JOINT abdomen
	{
		OFFSET 0.000000 3.402643 0.000000 
		CHANNELS 3 Xrotation Zrotation Yrotation
		JOINT chest
		{
			OFFSET 0.000000 8.438565 -0.680529 
			CHANNELS 3 Xrotation Zrotation Yrotation
			JOINT neck
			{
				OFFSET 0.000000 10.207942 -0.272212 
				CHANNELS 3 Xrotation Zrotation Yrotation
				JOINT head
				{
					OFFSET 0.000000 3.130431 0.000000 
					CHANNELS 3 Xrotation Zrotation Yrotation
					End Site
					{
						OFFSET 0.000000 3.130435 0.000000 
					}
				}
			}
			JOINT lCollar
			{
				OFFSET 3.470700 6.669187 -0.816635 
				CHANNELS 3 Yrotation Zrotation Xrotation
				JOINT lShldr
				{
					OFFSET 3.198488 0.000000 0.000000 
					CHANNELS 3 Zrotation Yrotation Xrotation
					JOINT lForeArm
					{
						OFFSET 10.139888 0.000000 0.000000 
						CHANNELS 3 Yrotation Zrotation Xrotation
						JOINT lHand
						{
							OFFSET 8.370511 0.000000 0.000000 
							CHANNELS 3 Zrotation Yrotation Xrotation
							End Site
							{
								OFFSET 4.083176 0.000000 0.000000 
							}
						}
					}
				}
			}
			JOINT rCollar
			{
				OFFSET -3.470700 6.669187 -0.816635 
				CHANNELS 3 Yrotation Zrotation Xrotation
				JOINT rShldr
				{
					OFFSET -3.198488 0.000000 0.000000 
					CHANNELS 3 Zrotation Yrotation Xrotation
					JOINT rForeArm
					{
						OFFSET -10.139888 0.000000 0.000000 
						CHANNELS 3 Yrotation Zrotation Xrotation
						JOINT rHand
						{
							OFFSET -8.370511 0.000000 0.000000 
							CHANNELS 3 Zrotation Yrotation Xrotation
							End Site
							{
								OFFSET -4.083176 0.000000 0.000000 
							}
						}
					}
				}
			}
		}
	}
	JOINT lThigh
	{
		OFFSET 5.308129 -1.633274 1.361059 
		CHANNELS 3 Xrotation Zrotation Yrotation
		JOINT lShin
		{
			OFFSET -2.041588 -20.007561 0.000000 
			CHANNELS 3 Xrotation Zrotation Yrotation
			JOINT lFoot
			{
				OFFSET 0.000000 -19.190928 -1.224953 
				CHANNELS 3 Xrotation Yrotation Zrotation
				End Site
				{
					OFFSET 0.000000 -2.449906 4.627600 
				}
			}
		}
	}
	JOINT rThigh
	{
		OFFSET -5.308129 -1.633274 1.361059 
		CHANNELS 3 Xrotation Zrotation Yrotation
		JOINT rShin
		{
			OFFSET 2.041588 -20.007561 0.000000 
			CHANNELS 3 Xrotation Zrotation Yrotation
			JOINT rFoot
			{
				OFFSET 0.000000 -19.190928 -1.224953 
				CHANNELS 3 Xrotation Yrotation Zrotation
				End Site
				{
					OFFSET 0.000000 -2.449906 4.627600 
				}
			}
		}
	}
}
MOTION
Frames: 6
Frame Time: 0.016667
0.000000 26.029100 0.000000 36.738281 -0.712891 -28.310551 6.494140 -13.544922 -10.595703 4.218750 -0.878906 1.161960 -34.130863 6.113281 20.527344 1.376953 2.207031 2.607422 0.000000 0.000000 0.000000 -16.914063 1.640625 -49.091515 -54.619141 -4.765625 3.945313 8.935546 -6.259766 33.662109 0.000000 0.000000 0.000000 -2.285156 43.173828 -64.990234 32.685547 2.753906 4.453125 -2.255859 12.812500 -0.935367 -99.738121 -22.509300 15.212511 51.925415 -2.480425 -3.439981 -2.425503 -15.839988 12.077762 -92.315903 -41.266518 9.964393 69.493340 1.054730 4.712542 -45.143295 -1.662842 0.005494 
-0.456700 25.746880 0.000000 36.406250 -2.128906 -25.830441 6.494140 -13.544922 -10.595703 4.218750 -0.703125 0.995974 -32.685551 5.507812 17.031248 1.552734 2.382812 2.080484 0.000000 0.000000 0.000000 -17.089844 -4.316407 -52.276127 -52.509766 -4.843750 4.003906 9.111327 -6.240234 34.365234 0.000000 0.000000 0.000000 -2.099609 43.525387 -64.973747 32.861328 2.753907 4.453125 -1.054688 15.039063 2.753906 -100.434402 -22.685154 16.895346 52.101986 -2.470638 -3.438526 -2.103868 -16.029028 10.663370 -93.757706 -41.815701 11.431610 71.964478 1.025969 4.535461 -44.930077 -3.438335 0.569993 
-0.913401 25.544252 0.000000 35.927734 -3.427734 -23.222656 6.494140 -13.544922 -10.595703 4.042969 -0.703125 0.820193 -31.230469 5.058594 13.583983 1.728516 2.382812 1.738281 0.000000 0.000000 0.000000 -17.089844 -10.468750 -55.245918 -50.400391 -4.921875 4.063338 9.111327 -6.240234 34.892578 0.000000 0.000000 0.000000 -2.089844 43.876953 -64.970703 33.037109 2.744141 4.453125 0.507813 17.128881 6.760679 -101.144638 -22.851065 18.430090 52.269264 -2.626639 -3.349289 -1.622793 -16.376925 9.260177 -95.130486 -42.322109 12.274207 74.411438 0.683849 4.805867 -44.690853 -4.839495 -0.065630 
-0.913401 25.363344 0.000000 35.458984 -4.589843 -20.498829 6.494140 -13.544922 -10.595703 3.867187 -0.527344 0.664063 -29.775391 4.775391 10.215658 1.904297 2.568359 1.201609 0.000000 0.000000 0.000000 -16.582031 -16.630861 -58.528183 -48.291019 -5.000000 4.121093 9.287109 -6.220703 35.594646 0.000000 0.000000 0.000000 -2.080078 44.228519 -64.970695 33.212891 2.744141 4.452658 2.099609 19.042967 10.625000 -101.862465 -23.046957 19.981091 52.463055 -2.367350 -3.251843 -1.448935 -16.960564 7.691538 -96.569733 -42.870274 13.462036 77.036293 0.508188 4.841422 -44.595142 -6.433891 0.006420 
-1.370100 25.175194 0.000000 34.824219 -5.781250 -17.919920 6.494140 -13.544922 -10.595703 3.691406 -0.527344 0.488191 -28.281250 4.453125 6.523438 2.080078 2.744141 0.673828 0.000000 0.000000 0.000000 -15.751953 -22.802734 -61.956913 -45.996094 -5.078125 4.189453 9.462890 -6.201171 36.298828 0.000000 0.000000 0.000000 -2.080078 44.580078 -64.960938 33.388668 2.744141 4.443360 4.042969 20.986328 14.746093 -102.331917 -22.881449 21.567284 52.463413 -2.367212 -3.242114 -0.980468 -17.912428 6.082969 -98.019409 -43.415501 14.544282 79.679787 0.166247 4.747976 -44.502731 -7.949429 0.154249 
-1.826799 24.950859 0.000000 34.208981 -7.001953 -15.292968 6.494140 -13.544922 -10.595703 3.691406 -0.351563 0.322266 -26.777346 4.335938 3.085938 2.246094 2.919922 0.146981 0.000000 0.000000 0.000000 -14.443358 -28.808590 -65.610176 -43.886719 -5.146484 4.258688 9.462890 -6.201171 37.001949 0.000000 0.000000 0.000000 -2.070312 44.755859 -64.954063 33.564449 2.734375 4.443359 6.015625 22.753904 18.974609 -102.864365 -23.056854 23.001390 52.638680 -2.386864 -3.263950 -0.819711 -18.357645 4.790346 -99.503456 -43.737740 15.758911 82.130890 -0.019124 4.936609 -44.311462 -10.116888 0.189534 
